<svg xmlns="http://www.w3.org/2000/svg" viewBox="0 0 120 120">
  <defs>
    <linearGradient id="warmGradient" x1="0%" y1="0%" x2="100%" y2="100%">
      <stop offset="0%" style="stop-color:#FD8536"/>
      <stop offset="100%" style="stop-color:#6E3018"/>
    </linearGradient>
  </defs>
  <circle cx="60" cy="60" r="56" fill="url(#warmGradient)"/>
  <g fill="white">
    <ellipse cx="55" cy="68" rx="22" ry="12"/>
    <circle cx="30" cy="55" r="10"/>
    <ellipse cx="21" cy="57" rx="6" ry="4"/>
    <path d="M38 60 Q42 62 45 68 L40 70 Q38 64 35 62 Z"/>
    <path d="M40 78 L38 95 L42 95 L45 78"/>
    <path d="M68 75 L72 95 L76 95 L73 75"/>
    <path d="M58 78 L55 95 L59 95 L63 78"/>
    <path d="M77 65 Q85 55 92 52 Q88 58 82 68 Z"/>
    <ellipse cx="35" cy="48" rx="5" ry="8" transform="rotate(-20 35 48)"/>
  </g>
</svg>
