<svg xmlns="http://www.w3.org/2000/svg" viewBox="0 0 120 120">
  <!-- Fuglehund silhuett i klassisk stand-posisjon -->
  <defs>
    <linearGradient id="warmGradient" x1="0%" y1="0%" x2="100%" y2="100%">
      <stop offset="0%" style="stop-color:#FD8536"/>
      <stop offset="100%" style="stop-color:#6E3018"/>
    </linearGradient>
  </defs>

  <!-- Sirkel bakgrunn -->
  <circle cx="60" cy="60" r="56" fill="url(#warmGradient)"/>

  <!-- Fuglehund i stand - stilisert silhuett -->
  <g fill="white">
    <!-- Kropp -->
    <ellipse cx="55" cy="68" rx="22" ry="12"/>

    <!-- Hode -->
    <circle cx="30" cy="55" r="10"/>

    <!-- Snute -->
    <ellipse cx="21" cy="57" rx="6" ry="4"/>

    <!-- Hals -->
    <path d="M38 60 Q42 62 45 68 L40 70 Q38 64 35 62 Z"/>

    <!-- Fremre ben (løftet i stand) -->
    <path d="M40 78 L38 95 L42 95 L45 78" fill="white"/>

    <!-- Bakre ben -->
    <path d="M68 75 L72 95 L76 95 L73 75" fill="white"/>
    <path d="M58 78 L55 95 L59 95 L63 78" fill="white"/>

    <!-- Hale (pekende opp og bak) -->
    <path d="M77 65 Q85 55 92 52 Q88 58 82 68 Z"/>

    <!-- Øre -->
    <ellipse cx="35" cy="48" rx="5" ry="8" transform="rotate(-20 35 48)"/>
  </g>

  <!-- Fugl (liten silhuett foran hunden) -->
  <g fill="white" opacity="0.8">
    <path d="M15 72 Q12 70 10 72 Q12 71 15 70 Q17 69 20 70 Q17 71 15 72" transform="rotate(-10 15 71)"/>
  </g>
</svg>
